<?xml version="1.0" encoding="UTF-8"?>
<svg version="1.1" xmlns="http://www.w3.org/2000/svg" width="32" height="32">
<path d="M0 0 C1.27617187 0.02320312 2.55234375 0.04640625 3.8671875 0.0703125 C5.78917969 0.09738281 5.78917969 0.09738281 7.75 0.125 C9.23113281 0.15980469 9.23113281 0.15980469 10.7421875 0.1953125 C11.7421875 2.1953125 11.7421875 2.1953125 11.7421875 9.1953125 C6.7921875 9.1953125 1.8421875 9.1953125 -3.2578125 9.1953125 C0.51079244 9.94903349 3.30887335 10.30775669 7.0546875 10.2578125 C8.37919922 10.24427734 8.37919922 10.24427734 9.73046875 10.23046875 C10.39433594 10.21886719 11.05820312 10.20726562 11.7421875 10.1953125 C11.77957031 11.37609375 11.81695313 12.556875 11.85546875 13.7734375 C11.92113899 15.33076038 11.98758597 16.88805064 12.0546875 18.4453125 C12.07724609 19.22261719 12.09980469 19.99992187 12.12304688 20.80078125 C12.32679706 25.13510343 12.51394374 27.97572355 15.7421875 31.1953125 C14.7421875 32.1953125 14.7421875 32.1953125 11.87475586 32.30883789 C10.62315674 32.30360107 9.37155762 32.29836426 8.08203125 32.29296875 C7.08533165 32.29084633 7.08533165 32.29084633 6.0684967 32.28868103 C3.93884851 32.28306768 1.80930411 32.27051304 -0.3203125 32.2578125 C-1.76106619 32.25279921 -3.20182153 32.24823601 -4.64257812 32.24414062 C-8.18102352 32.23309395 -11.71940789 32.21582042 -15.2578125 32.1953125 C-15.2578125 31.2053125 -15.2578125 30.2153125 -15.2578125 29.1953125 C-14.2678125 29.1953125 -13.2778125 29.1953125 -12.2578125 29.1953125 C-12.4228125 28.4528125 -12.5878125 27.7103125 -12.7578125 26.9453125 C-13.59101291 22.36271027 -13.11691655 19.3782966 -11.2578125 15.1953125 C-8.2878125 15.6903125 -8.2878125 15.6903125 -5.2578125 16.1953125 C-5.28101563 15.20789062 -5.30421875 14.22046875 -5.328125 13.203125 C-5.34617187 11.92179688 -5.36421875 10.64046875 -5.3828125 9.3203125 C-5.40601563 8.04414063 -5.42921875 6.76796875 -5.453125 5.453125 C-5.18498778 0.98059624 -4.47252876 0.26813722 0 0 Z M-3.2578125 3.1953125 C0.72185207 5.18514478 1.41893882 5.41931966 5.4921875 4.8203125 C6.69101562 4.65402344 6.69101562 4.65402344 7.9140625 4.484375 C8.51734375 4.38898437 9.120625 4.29359375 9.7421875 4.1953125 C9.7421875 3.8653125 9.7421875 3.5353125 9.7421875 3.1953125 C5.4521875 3.1953125 1.1621875 3.1953125 -3.2578125 3.1953125 Z M-1.2578125 12.1953125 C-0.2578125 14.1953125 -0.2578125 14.1953125 -0.2578125 14.1953125 Z M2.7421875 12.1953125 C3.7421875 14.1953125 3.7421875 14.1953125 3.7421875 14.1953125 Z M-3.2578125 15.1953125 C-3.2578125 15.8553125 -3.2578125 16.5153125 -3.2578125 17.1953125 C1.0321875 17.1953125 5.3221875 17.1953125 9.7421875 17.1953125 C9.4121875 16.5353125 9.0821875 15.8753125 8.7421875 15.1953125 C4.7821875 15.1953125 0.8221875 15.1953125 -3.2578125 15.1953125 Z M-8.3203125 21.1953125 C-8.9596875 21.8553125 -9.5990625 22.5153125 -10.2578125 23.1953125 C-6.9578125 23.5253125 -3.6578125 23.8553125 -0.2578125 24.1953125 C-1.9032503 22.50768399 -3.57069827 20.8412776 -5.2578125 19.1953125 C-6.61698931 19.07928819 -6.61698931 19.07928819 -8.3203125 21.1953125 Z M2.7421875 22.1953125 C2.7421875 22.5253125 2.7421875 22.8553125 2.7421875 23.1953125 C5.0521875 23.1953125 7.3621875 23.1953125 9.7421875 23.1953125 C9.7421875 22.8653125 9.7421875 22.5353125 9.7421875 22.1953125 C7.4321875 22.1953125 5.1221875 22.1953125 2.7421875 22.1953125 Z M-9.2578125 25.1953125 C-9.2578125 26.5153125 -9.2578125 27.8353125 -9.2578125 29.1953125 C-8.5978125 29.1953125 -7.9378125 29.1953125 -7.2578125 29.1953125 C-7.2578125 27.8753125 -7.2578125 26.5553125 -7.2578125 25.1953125 C-7.9178125 25.1953125 -8.5778125 25.1953125 -9.2578125 25.1953125 Z M-5.2578125 28.1953125 C-5.2578125 28.5253125 -5.2578125 28.8553125 -5.2578125 29.1953125 C-3.6078125 29.1953125 -1.9578125 29.1953125 -0.2578125 29.1953125 C-0.2578125 28.8653125 -0.2578125 28.5353125 -0.2578125 28.1953125 C-1.9078125 28.1953125 -3.5578125 28.1953125 -5.2578125 28.1953125 Z M0.7421875 28.1953125 C0.7421875 28.5253125 0.7421875 28.8553125 0.7421875 29.1953125 C2.7221875 29.1953125 4.7021875 29.1953125 6.7421875 29.1953125 C6.7421875 28.8653125 6.7421875 28.5353125 6.7421875 28.1953125 C4.7621875 28.1953125 2.7821875 28.1953125 0.7421875 28.1953125 Z " fill="#000000" transform="translate(16.2578125,-0.1953125)"/>
</svg>
