<svg width="32" height="32" viewBox="0 0 32 32" fill="none" xmlns="http://www.w3.org/2000/svg">
<g clip-path="url(#clip0_41157_9825)">
<circle cx="16" cy="16" r="15" fill="white" stroke="#A1AEBE" stroke-width="2"/>
</g>
<g clip-path="url(#clip1_41157_9825)">
<path d="M22.9094 22.0494L20.0687 17.4012C20.5837 17.105 21.0775 16.7594 21.5387 16.355C21.7981 16.1275 21.8237 15.7325 21.5962 15.4731C21.3675 15.2131 20.9737 15.1887 20.7137 15.4156C20.3075 15.7719 19.8719 16.075 19.4169 16.3344L17.5137 13.22C17.8169 12.8063 18.0012 12.3012 18.0012 11.7506C18.0012 10.5894 17.2019 9.61875 16.1262 9.33937V8.625C16.1262 8.28 15.8469 8 15.5012 8C15.1556 8 14.8762 8.28 14.8762 8.625V9.33875C13.8006 9.61812 13.0012 10.5887 13.0012 11.75C13.0012 12.3006 13.1856 12.8056 13.4887 13.2194L11.5856 16.3331C11.1306 16.0744 10.695 15.7712 10.2887 15.4144C10.0287 15.1869 9.635 15.2119 9.40625 15.4719C9.17875 15.7312 9.20437 16.1256 9.46375 16.3544C9.92437 16.7587 10.4181 17.105 10.9337 17.4006L8.09187 22.0494C7.91187 22.3444 8.00437 22.7288 8.29937 22.9088C8.40125 22.9713 8.51375 23 8.625 23C8.83562 23 9.04125 22.8937 9.15875 22.7006L12.0637 17.9469C13.1637 18.3906 14.3306 18.62 15.5 18.62C16.6694 18.62 17.8362 18.3906 18.9362 17.9469L21.8412 22.7006C21.9587 22.8937 22.165 23 22.375 23C22.4862 23 22.5981 22.9706 22.7006 22.9088C22.9956 22.7288 23.0881 22.3444 22.9081 22.0494H22.9094ZM15.5006 10.5C16.19 10.5 16.7506 11.0606 16.7506 11.75C16.7506 12.4394 16.19 13 15.5006 13C14.8112 13 14.2506 12.4394 14.2506 11.75C14.2506 11.0606 14.8112 10.5 15.5006 10.5ZM12.7225 16.8694L14.4644 14.0188C14.7806 14.1638 15.1294 14.25 15.5 14.25C15.8706 14.25 16.2194 14.1638 16.5356 14.0188L18.2781 16.87C16.4912 17.5369 14.5094 17.5369 12.7225 16.87V16.8694Z" fill="black"/>
</g>
<defs>
<clipPath id="clip0_41157_9825">
<rect width="32" height="32" fill="white"/>
</clipPath>
<clipPath id="clip1_41157_9825">
<rect width="15" height="15" fill="white" transform="translate(8 8)"/>
</clipPath>
</defs>
</svg>
